# xmcd
#
# Track frame offsets:
#	150
#	17130
#	32165
#	50120
#	67205
#	86978
#	105975
#	123543
#	139780
#	159065
#	183203
#	206803
#
# Disc length: 2998 seconds
#
# Revision: 1
# Processed by: cddbd v1.5.1PL0 Copyright (c) Steve Scherf et al.
# Submitted via: CDex 1.50Beta5
#
DISCID=aa0bb40c
DTITLE=PICASSO - ピカソ スペシャル・セレクション〜アーリー・ベスト’84〜’86
DYEAR=1993
DGENRE=Rock
TTITLE0=本気!トリッキー・レディー
TTITLE1=DREAM ON DREAM
TTITLE2=ジオラマ・グラフィティ
TTITLE3=ISLAND
TTITLE4=TIDE
TTITLE5=日曜日の恐竜館
TTITLE6=シ・ネ・マ
TTITLE7=濡れた瞳のピクチャー
TTITLE8=獣達のバカンス
TTITLE9=ダイヤモンドの月
TTITLE10=チャイナタウンで踊った女
TTITLE11=ファンタジー
EXTD=
EXTT0=
EXTT1=
EXTT2=
EXTT3=
EXTT4=
EXTT5=
EXTT6=
EXTT7=
EXTT8=
EXTT9=
EXTT10=
EXTT11=
PLAYORDER=
